<svg xmlns="http://www.w3.org/2000/svg" width="22" height="22" viewBox="0 0 22 22"><g fill="none" fill-rule="evenodd"><path fill="#3B5385" d="M11 1c5.523 0 10 4.477 10 10s-4.477 10-10 10S1 16.523 1 11 5.477 1 11 1"/><path fill="#FFF" d="M10.5 1C5.262 1 1 5.261 1 10.5c0 5.238 4.262 9.5 9.5 9.5 5.239 0 9.5-4.262 9.5-9.5C20 5.26 15.739 1 10.5 1zm.5 21C4.935 22 0 17.065 0 11 0 4.934 4.935 0 11 0s11 4.934 11 11c0 6.065-4.935 11-11 11z"/><path fill="#FFF" d="M12.805 11.504h-1.508V17H9.062v-5.496H8V9.562h1.062V8.305C9.062 7.407 9.48 6 11.318 6l1.654.007v1.885h-1.2c-.198 0-.475.1-.475.529v1.143H13l-.195 1.94"/></g></svg>