<svg xmlns="http://www.w3.org/2000/svg" width="24" height="24" viewBox="0 0 24 24"><path data-name="Path 3" d="M12 2.154a36.725 36.725 0 014.79.134 6.171 6.171 0 012.261.4 4.672 4.672 0 012.261 2.26 6.171 6.171 0 01.4 2.264c0 1.2.134 1.6.134 4.79a36.724 36.724 0 01-.134 4.79 6.171 6.171 0 01-.4 2.261 4.672 4.672 0 01-2.261 2.259 6.171 6.171 0 01-2.261.4c-1.2 0-1.6.134-4.79.134a36.725 36.725 0 01-4.788-.134 6.171 6.171 0 01-2.261-.4 4.672 4.672 0 01-2.263-2.261 6.171 6.171 0 01-.4-2.261c0-1.2-.134-1.6-.134-4.79a36.725 36.725 0 01.132-4.788 6.171 6.171 0 01.4-2.261 4.778 4.778 0 01.926-1.339 2.249 2.249 0 011.331-.932 6.171 6.171 0 012.261-.4 36.723 36.723 0 014.79-.132m0-2.13a39.319 39.319 0 00-4.918.14A8.215 8.215 0 004.15.689 5.209 5.209 0 002.02 2.02 5.209 5.209 0 00.689 4.15a6.063 6.063 0 00-.531 2.926A39.319 39.319 0 00.024 12a39.319 39.319 0 00.134 4.924 8.215 8.215 0 00.531 2.926 5.209 5.209 0 001.331 2.13 5.209 5.209 0 002.13 1.332 8.215 8.215 0 002.928.533 39.319 39.319 0 004.922.132 39.318 39.318 0 004.924-.134 8.215 8.215 0 002.928-.533 5.588 5.588 0 003.46-3.461 8.215 8.215 0 00.533-2.928c0-1.329.132-1.728.132-4.922a39.319 39.319 0 00-.134-4.924 8.215 8.215 0 00-.531-2.927 5.209 5.209 0 00-1.329-2.128A5.209 5.209 0 0019.849.689a8.215 8.215 0 00-2.926-.531A39.319 39.319 0 0012 .024m0 5.854a6.022 6.022 0 00-6.121 6.121A6.121 6.121 0 1012 5.878m0 10.113A3.92 3.92 0 018.012 12 3.92 3.92 0 0112 8.012a3.92 3.92 0 013.992 3.992A3.92 3.92 0 0112 15.996M18.386 4.15a1.463 1.463 0 101.463 1.462 1.463 1.463 0 00-1.463-1.463" fill="#002f34" fill-rule="evenodd"/></svg>