<svg id="Isolation_Mode" data-name="Isolation Mode" xmlns="http://www.w3.org/2000/svg" viewBox="0 0 695.86 131.01"><defs><style>.cls-1{fill:#fff}</style></defs><path class="cls-1" d="M646 32.82c-13.8 0-25.68 4.7-35.31 14s-14.55 20.88-14.55 34.51 4.89 25.25 14.55 34.54 21.51 14 35.31 14 25.68-4.69 35.3-14a46.22 46.22 0 0014.56-34.54 46.24 46.24 0 00-14.56-34.55c-9.62-9.26-21.5-14-35.3-14m16.56 65.4a24 24 0 01-33.21.08 23.77 23.77 0 01-6.6-17 23 23 0 016.56-16.77 23.62 23.62 0 0133.25 0 22.5 22.5 0 016.69 16.73 23.21 23.21 0 01-6.69 16.89M593.54 33.42a36 36 0 00-6.76-.57 33.11 33.11 0 00-22.31 8.71v-3a3.23 3.23 0 00-3.23-3.22H541a3.22 3.22 0 00-3.22 3.22v85.8a3.22 3.22 0 003.22 3.22h20.26a3.23 3.23 0 003.23-3.22V79.28c0-12.37 7.44-19.75 19.92-19.75a39.74 39.74 0 017.88.79 3.36 3.36 0 00.63.06 3.27 3.27 0 002.05-.73 3.22 3.22 0 001.18-2.5V36.59a3.24 3.24 0 00-2.59-3.17M508.57 129.32a16.93 16.93 0 10-17.11-16.92 16.94 16.94 0 0017.11 16.92M200.36 33.82c-13.8 0-25.68 4.7-35.3 14a46.26 46.26 0 00-14.56 34.51 46.22 46.22 0 0014.56 34.54c9.62 9.27 21.5 14 35.3 14s25.68-4.7 35.31-14a46.22 46.22 0 0014.56-34.54 46.26 46.26 0 00-14.56-34.55c-9.62-9.26-21.5-14-35.31-14m16.56 65.4a24 24 0 01-33.21.08 23.75 23.75 0 01-6.6-17 23 23 0 016.56-16.77 23.62 23.62 0 0133.25 0 22.48 22.48 0 016.69 16.73 23.21 23.21 0 01-6.69 16.89M317 34.42a35.92 35.92 0 00-6.76-.57 33.13 33.13 0 00-22.31 8.71v-3a3.23 3.23 0 00-3.23-3.22h-20.26a3.22 3.22 0 00-3.22 3.22v85.8a3.22 3.22 0 003.22 3.22h20.26a3.23 3.23 0 003.23-3.22V80.29c0-12.38 7.45-19.76 19.92-19.76a39.74 39.74 0 017.88.79 3.39 3.39 0 00.64.06 3.27 3.27 0 002-.73 3.22 3.22 0 001.18-2.5V37.59a3.24 3.24 0 00-2.55-3.17M363.74 105.32a3.36 3.36 0 00-.63.06 14.7 14.7 0 01-2.95.28c-1.88 0-2.73 0-2.73-5.8V39.6a3.22 3.22 0 00-3.22-3.22h-20.43a3.23 3.23 0 00-3.23 3.22v65.71c0 16.13 8.16 25 23 25 5 0 8.89-.54 11.46-1.6a3.24 3.24 0 002-3v-17.2a3.22 3.22 0 00-3.22-3.22M344 33.85a16.93 16.93 0 10-17.11-16.92A16.94 16.94 0 00344 33.85M479.14 106.82A3.22 3.22 0 00477 106h-.35a38.16 38.16 0 01-3.9.32c-1.72 0-3.08 0-3.08-6.82V39.6a3.22 3.22 0 00-3.22-3.22H446a3.22 3.22 0 00-3.22 3.22v2.74C437 37.41 428.4 34.5 418.6 34.5a44.09 44.09 0 00-33 13.93c-8.69 9.09-13.12 20.57-13.12 34.07s4.42 25 13.16 34.24a44.11 44.11 0 0033 13.93c12.26 0 21.79-3.44 28.41-10.25a20.27 20.27 0 006.34 6.71c3.52 2.15 8 3.2 13.6 3.2a32.75 32.75 0 0011.2-1.58 3.24 3.24 0 002.07-3v-16.52a3.23 3.23 0 00-1.08-2.41M437.6 99a22.19 22.19 0 01-16.27 6.54 21.47 21.47 0 01-15.9-6.54c-4.14-4.29-6.24-9.83-6.24-16.48s2.1-12.2 6.2-16.45a21.53 21.53 0 0115.94-6.54 22.22 22.22 0 0116.31 6.58 21.93 21.93 0 016.68 16.41A22 22 0 01437.6 99M52 71.8l-1.34-.48c-3.41-1.19-7.27-2.55-9.29-3.06a44.28 44.28 0 01-6.39-2.78c-2.2-1.4-2.43-2.1-2.43-3.24 0-3.27 3.69-4.43 7.16-4.43 6.38 0 11 1.93 14.14 5.91A3.21 3.21 0 0056.19 65h.15a3.22 3.22 0 002.34-1l11.41-12.14a3.23 3.23 0 00.2-4.19C63.16 38.48 53 33.82 40 33.82a37.7 37.7 0 00-23.63 7.68c-6.57 5.22-9.9 12.37-9.9 21.25 0 13.06 7.17 21.45 23.1 27.15 2.26.93 5.62 2 8.33 2.87l2.44.79a42.61 42.61 0 017.51 3c1 .52 3.22 1.93 3.22 4 0 5.53-8.46 6.13-12.1 6.13-8.65 0-16.28-3.54-19.92-9.23A3.2 3.2 0 0016.81 96a3.87 3.87 0 00-.48 0 3.27 3.27 0 00-2.08.76l-13.1 11.02a3.22 3.22 0 00-.8 3.93c6.18 12.15 20.13 19.13 38.28 19.13 23.73 0 38.47-11.68 38.47-30.47C77.1 86.78 69.35 78 52 71.8"/><path class="cls-1" d="M150 48.27a5.52 5.52 0 006.95-5.33v-17a5.52 5.52 0 00-4.1-5.33l-35.77-9.54V3.24A3.23 3.23 0 00113.86 0H93.43a3.22 3.22 0 00-3.22 3.22c.1 0 .15 6 .17 14.92l-9.18 2.45a5.51 5.51 0 00-4.1 5.33v17a5.53 5.53 0 005.51 5.52 5.46 5.46 0 001.39-.17l6.33-1.69v14.29c-.06 20.13-.13 37.8-.13 37.8 0 21.15 10.71 32.34 31 32.34 4.38 0 13.77-.38 16.89-1.11a3.22 3.22 0 002.49-3.14v-19.44a3.23 3.23 0 00-3.23-3.22 3.53 3.53 0 00-.72.08 43.28 43.28 0 01-12 1.82c-5.19 0-7.5-1.38-7.5-9.54V39.48zm-33-11.86l-3 .79-23.63 6.32-7.09 1.89a2.63 2.63 0 01-.67.09 2.56 2.56 0 01-2.55-2.56v-17A2.55 2.55 0 0182 23.45l8.42-2.25L117 14.1z"/></svg>